<?xml version="1.0" encoding="UTF-8"?>
<svg version="1.1" xmlns="http://www.w3.org/2000/svg" width="1552" height="1920">
<path d="M0 0 C1.27494324 -0.00067474 2.54988647 -0.00134949 3.86346436 -0.00204468 C22.9621344 0.01401169 41.63598491 0.51611077 60.5625 3.25 C62.44001953 3.50740967 62.44001953 3.50740967 64.35546875 3.77001953 C141.63004352 14.52502565 214.98079981 45.37906838 276.5625 93.25 C277.80712307 94.20594871 279.05191508 95.16167751 280.296875 96.1171875 C286.52468681 100.92530297 292.5379553 105.87219705 298.33203125 111.203125 C300.39546274 113.09671187 302.49824581 114.92826164 304.625 116.75 C309.15874621 120.69637828 313.34870118 124.96811467 317.5625 129.25 C320.36181444 132.06347624 323.17955706 134.85649589 326.015625 137.6328125 C332.5037147 144.01032909 338.77052064 150.37483592 344.40625 157.53515625 C346.35562068 159.98952694 348.37730669 162.36118929 350.43579102 164.72412109 C369.23886989 186.41818585 384.52442136 211.30389417 398.5625 236.25 C398.99401367 237.01231934 399.42552734 237.77463867 399.87011719 238.56005859 C448.55214223 325.18837768 461.35399314 429.41738482 436.80029297 569.99169922 C430.94071688 590.41553957 424.03946392 610.76197493 415.5625 630.25 C415.01094238 631.53390625 415.01094238 631.53390625 414.44824219 632.84375 C408.2871707 647.10179074 401.236611 660.75164811 393.5625 674.25 C393.11874023 675.0327832 392.67498047 675.81556641 392.21777344 676.62207031 C374.86082713 707.08555076 353.56190897 737.08420555 328.29296875 761.51953125 C326.58128062 763.23121938 325.04797044 765.01509598 323.5 766.875 C317.76383734 773.54526254 311.04496223 779.32267065 304.5625 785.25 C303.63566406 786.10335937 302.70882813 786.95671875 301.75390625 787.8359375 C294.64872478 794.315863 287.29673694 800.53026198 279.5625 806.25 C283.81787598 807.75560544 287.99791556 808.82741102 292.42578125 809.6953125 C293.7838363 809.96558274 295.14182489 810.23618708 296.49975586 810.50708008 C297.5670845 810.71827988 297.5670845 810.71827988 298.65597534 810.93374634 C356.77871801 822.49146966 413.77073214 839.14189255 467.5625 864.25 C469.02405518 864.92651611 469.02405518 864.92651611 470.51513672 865.61669922 C505.22078986 881.72828446 538.67169743 901.55841547 567.6328125 926.72265625 C570.51995387 929.21329688 573.46536667 931.61182241 576.4375 934 C580.14552605 937.01578964 583.57314002 940.13825217 586.890625 943.57421875 C588.68820925 945.37600297 590.56910302 947.02977256 592.5 948.6875 C598.69516936 954.04548431 604.31800643 959.8493765 609.65234375 966.05859375 C611.88893818 968.6245027 614.19374067 971.1215643 616.5 973.625 C621.08940667 978.66989665 625.40352855 983.84631846 629.5625 989.25 C629.99788086 989.81283691 630.43326172 990.37567383 630.88183594 990.95556641 C687.05190115 1063.79931261 716.51009186 1151.71284888 752.5625 1369.25 C752.67287598 1370.42481934 752.78325195 1371.59963867 752.89697266 1372.81005859 C753.52566644 1379.61876272 754.11027469 1386.42722597 754.5625 1393.25 C754.64935059 1394.46647217 754.73620117 1395.68294434 754.82568359 1396.9362793 C755.8116431 1411.98997473 755.78464347 1427.07095847 755.80273438 1442.15014648 C755.80708291 1445.2316495 755.82086124 1448.31286682 755.84375 1451.39428711 C756.04545851 1479.16531946 754.66572751 1506.72556011 750.25 1534.1875 C750.14578735 1534.85070251 750.04157471 1535.51390503 749.9342041 1536.19720459 C739.85034092 1600.17997371 716.46046221 1661.49458023 675.5625 1712.25 C674.47775391 1713.62285156 674.47775391 1713.62285156 673.37109375 1715.0234375 C664.39129317 1726.23614019 654.44078336 1736.45772242 644.3125 1746.625 C643.47291748 1747.46925537 642.63333496 1748.31351074 641.76831055 1749.18334961 C636.86152045 1754.07753707 631.84857839 1758.76832484 626.5625 1763.25 C625.74265625 1763.95125 624.9228125 1764.6525 624.078125 1765.375 C597.60426384 1787.28440234 568.91960285 1805.2461001 538.5625 1821.25 C537.18747314 1821.97654785 537.18747314 1821.97654785 535.78466797 1822.71777344 C453.11624069 1866.05681586 359.25689485 1887.52121794 153.18505859 1914.04681396 C150.64370562 1914.24370849 148.10305363 1914.44785458 145.5625 1914.65478516 C87.00846545 1919.40680534 28.32490011 1920.77220806 -30.39695519 1920.6357066 C-35.822555 1920.62440064 -41.24799018 1920.62849248 -46.67358398 1920.64111328 C-81.22406475 1920.71933314 -115.70443264 1920.32343382 -150.2265625 1918.84375 C-151.34048091 1918.79618034 -151.34048091 1918.79618034 -152.47690272 1918.74764967 C-244.70867395 1914.78424572 -336.98960477 1905.39436261 -578.87744141 1834.45800781 C-581.20336576 1833.36048028 -583.53980973 1832.2939011 -585.88671875 1831.2421875 C-598.1716111 1825.69821392 -609.80921917 1819.04762685 -621.4375 1812.25 C-622.65469727 1811.5398877 -622.65469727 1811.5398877 -623.89648438 1810.81542969 C-641.28095154 1800.60702327 -657.87935219 1789.07539782 -673.4375 1776.25 C-673.99034668 1775.7947998 -674.54319336 1775.33959961 -675.11279297 1774.87060547 C-689.44840388 1762.98686697 -703.21561459 1750.31486813 -715.4375 1736.25 C-716.22898437 1735.34636719 -717.02046875 1734.44273438 -717.8359375 1733.51171875 C-760.52286313 1683.57216012 -784.17297165 1622.84856923 -793.4375 1558.25 C-793.60411133 1557.08855469 -793.77072266 1555.92710938 -793.94238281 1554.73046875 C-796.54455527 1535.35694465 -796.7216094 1515.96015051 -796.74712753 1496.44241333 C-796.74994261 1494.47755587 -796.75551211 1492.51270298 -796.76113892 1490.54785156 C-796.91423783 1388.03216358 -769.85987111 1286.00295775 -728.19995117 1142.5413208 C-727.43591993 1140.24525158 -726.67895519 1137.94696079 -725.92382812 1135.64794922 C-716.20239054 1106.09904693 -704.90238043 1077.31081081 -691.4375 1049.25 C-690.98665039 1048.30979004 -690.53580078 1047.36958008 -690.07128906 1046.40087891 C-683.76514632 1033.33879402 -676.95850415 1020.65251254 -669.4375 1008.25 C-668.96199707 1007.4652832 -668.48649414 1006.68056641 -667.99658203 1005.87207031 C-655.36191557 985.16185526 -641.08943166 965.51201492 -624.6328125 947.65625 C-622.78375972 945.62953022 -620.98725647 943.57286518 -619.1953125 941.49609375 C-615.35658473 937.100346 -611.31559063 932.93590122 -607.1875 928.8125 C-606.44024658 928.06605225 -605.69299316 927.31960449 -604.9230957 926.55053711 C-599.35493828 921.04365405 -593.60391079 916.07832772 -587.4375 911.25 C-585.60137952 909.69077617 -583.76821006 908.12807275 -581.9375 906.5625 C-568.88524474 895.6912563 -555.07130771 885.86964577 -540.4375 877.25 C-539.61991211 876.76789062 -538.80232422 876.28578125 -537.95996094 875.7890625 C-527.31593713 869.54604742 -516.58567419 863.56480835 -505.45947266 858.22412109 C-503.3347353 857.20049129 -501.22024452 856.15732005 -499.10546875 855.11328125 C-433.12758693 822.83786419 -360.356357 808.88896459 -288.4375 797.25 C-289.55572144 796.34725342 -289.55572144 796.34725342 -290.6965332 795.42626953 C-291.67968506 794.62817871 -292.66283691 793.83008789 -293.67578125 793.0078125 C-294.64813721 792.22035645 -295.62049316 791.43290039 -296.62231445 790.62158203 C-299.79154081 787.95174726 -302.67564224 785.10312617 -305.55859375 782.1328125 C-307.36731471 780.32033121 -309.23725481 778.65790864 -311.1875 777 C-318.88866203 770.36211478 -326.09626084 763.02942868 -332.6796875 755.28515625 C-334.7901414 752.84171962 -336.99042879 750.49081179 -339.1875 748.125 C-344.48798523 742.31052833 -349.32443817 736.19368372 -354.11572266 729.95703125 C-355.32467832 728.39570542 -356.55765565 726.8530563 -357.79296875 725.3125 C-369.98292069 709.95765266 -380.69835697 693.25470803 -390.4375 676.25 C-390.8097168 675.61094727 -391.18193359 674.97189453 -391.56542969 674.31347656 C-428.59497397 610.61036843 -448.79646416 536.86413253 -450.4375 463.25 C-450.45941406 462.33492676 -450.48132813 461.41985352 -450.50390625 460.47705078 C-451.54554112 409.28937735 -443.87506078 359.00207447 -428.4375 310.25 C-428.13875977 309.30527832 -427.84001953 308.36055664 -427.53222656 307.38720703 C-407.88517287 246.3025226 -372.560218 184.83617351 -326.17578125 139.98828125 C-324.42157142 138.23407142 -322.84191971 136.40178242 -321.25 134.5 C-316.63590151 129.1413538 -311.34273507 124.50763036 -306.10742188 119.77148438 C-304.53160663 118.3357416 -302.9736819 116.8834844 -301.421875 115.421875 C-294.63944573 109.05578167 -287.53716101 103.25910695 -280.16259766 97.59423828 C-278.54995378 96.33762674 -276.96703481 95.04312652 -275.38671875 93.74609375 C-248.21570738 71.4511588 -216.40782754 53.3424928 -184.37548828 39.1171875 C-183.02853299 38.51446828 -181.68603126 37.90173698 -180.34716797 37.28125 C-137.0223961 17.21063842 -88.879229 5.63939688 -41.4375 1.25 C-40.49543701 1.1557373 -39.55337402 1.06147461 -38.58276367 0.96435547 C-25.75646116 -0.15010837 -12.86420308 0.00610797 0 0 Z " fill="#2D5D98" transform="translate(796.4375,-0.25)"/>
<path d="M0 0 C1.27494324 -0.00067474 2.54988647 -0.00134949 3.86346436 -0.00204468 C22.9621344 0.01401169 41.63598491 0.51611077 60.5625 3.25 C62.44001953 3.50740967 62.44001953 3.50740967 64.35546875 3.77001953 C141.63004352 14.52502565 214.98079981 45.37906838 276.5625 93.25 C277.80712307 94.20594871 279.05191508 95.16167751 280.296875 96.1171875 C286.52468681 100.92530297 292.5379553 105.87219705 298.33203125 111.203125 C300.39546274 113.09671187 302.49824581 114.92826164 304.625 116.75 C309.15874621 120.69637828 313.34870118 124.96811467 317.5625 129.25 C320.36181444 132.06347624 323.17955706 134.85649589 326.015625 137.6328125 C332.5037147 144.01032909 338.77052064 150.37483592 344.40625 157.53515625 C346.35562068 159.98952694 348.37730669 162.36118929 350.43579102 164.72412109 C369.23886989 186.41818585 384.52442136 211.30389417 398.5625 236.25 C398.99401367 237.01231934 399.42552734 237.77463867 399.87011719 238.56005859 C448.55214223 325.18837768 461.35399314 429.41738482 436.80029297 569.99169922 C430.94071688 590.41553957 424.03946392 610.76197493 415.5625 630.25 C415.01094238 631.53390625 415.01094238 631.53390625 414.44824219 632.84375 C408.2871707 647.10179074 401.236611 660.75164811 393.5625 674.25 C393.11874023 675.0327832 392.67498047 675.81556641 392.21777344 676.62207031 C374.86082713 707.08555076 353.56190897 737.08420555 328.29296875 761.51953125 C326.58128062 763.23121938 325.04797044 765.01509598 323.5 766.875 C317.76383734 773.54526254 311.04496223 779.32267065 304.5625 785.25 C303.17224609 786.53003906 303.17224609 786.53003906 301.75390625 787.8359375 C292.16767818 796.5785775 282.08442833 804.46731022 271.46777344 811.90673828 C269.52344275 813.27753626 267.59273934 814.66587297 265.6640625 816.05859375 C230.32401297 841.48177089 191.78034283 862.16330403 150.5625 876.25 C149.59570312 876.58467285 148.62890625 876.9193457 147.6328125 877.26416016 C134.01305195 881.96835377 120.28993877 886.34016409 106.30297852 889.82128906 C105.22669693 890.0894342 104.15041534 890.35757935 103.04151917 890.6338501 C102.22344284 890.83717957 101.40536652 891.04050903 100.5625 891.25 C101.10057785 891.67038544 101.6386557 892.09077087 102.19303894 892.52389526 C138.24746223 921.00993399 138.24746223 921.00993399 142.34936523 934.91796875 C143.60382892 945.64551546 138.42599353 956.17809415 134.15635681 965.74559021 C129.61847481 975.94909207 126.95707346 986.5570793 124.18188477 997.34655762 C122.76366572 1002.79660496 121.24551214 1008.21857363 119.73828125 1013.64453125 C116.95236094 1023.75474364 114.28111392 1033.888586 111.69042969 1044.05053711 C110.08863757 1050.30941064 108.35035166 1056.50634435 106.47436523 1062.68798828 C104.48430722 1069.32691909 102.78125311 1076.03657973 101.0625 1082.75 C99.17557634 1090.12029156 97.27302924 1097.46960997 95.0625 1104.75 C92.5882933 1112.90219388 90.48307507 1121.14325339 88.41210938 1129.40625 C86.56518419 1136.67823977 84.5140803 1143.87176374 82.39086914 1151.06713867 C78.51808221 1164.27640965 74.87874191 1177.54485577 71.26953125 1190.828125 C70.57202491 1193.38878534 69.87434292 1195.94939722 69.17643738 1198.50994873 C67.6863361 1203.97826888 66.19773635 1209.44699583 64.71020508 1214.91601562 C62.52917399 1222.93464229 60.34559293 1230.95257296 58.1613543 1238.97032642 C57.13402349 1242.74138946 56.10678008 1246.51247631 55.07955933 1250.28356934 C54.87438434 1251.03679899 54.66920936 1251.79002864 54.45781696 1252.56608343 C52.99015201 1257.95431401 51.52293263 1263.34266579 50.05593872 1268.7310791 C44.52518146 1289.04599256 38.98979026 1309.35963602 33.44921875 1329.671875 C33.26497164 1330.34734855 33.08072453 1331.0228221 32.89089417 1331.71876454 C31.22129917 1337.83969056 29.55163982 1343.96059902 27.8818903 1350.08148289 C25.3008208 1359.54306279 22.72020781 1369.00476711 20.13989258 1378.46655273 C19.76986294 1379.82341102 19.39983318 1381.18026928 19.02980328 1382.53712749 C18.47336866 1384.57751292 17.91693428 1386.61789841 17.36050075 1388.65828413 C11.02550144 1411.88804686 4.68919039 1435.11745145 -1.64821815 1458.34655702 C-3.12606468 1463.76347902 -4.6038315 1469.18042275 -6.08154297 1474.59738159 C-6.28784773 1475.35364842 -6.49415249 1476.10991524 -6.70670891 1476.88909924 C-7.73851377 1480.67147626 -8.77030762 1484.45385628 -9.80209351 1488.23623848 C-11.99952261 1496.29164143 -14.19722035 1504.346971 -16.39526939 1512.40220481 C-17.88679261 1517.86830498 -19.37800549 1523.33448976 -20.86898232 1528.80073899 C-21.7267452 1531.94544434 -22.58469405 1535.09009875 -23.44293213 1538.23467445 C-26.8079393 1550.56429912 -30.1694662 1562.89425369 -33.4375 1575.25 C-34.0975 1575.25 -34.7575 1575.25 -35.4375 1575.25 C-35.57212646 1574.44111328 -35.70675293 1573.63222656 -35.84545898 1572.79882812 C-38.94786873 1554.24361035 -42.24866705 1535.73417895 -45.75 1517.25 C-48.93432919 1500.43693081 -51.99231967 1483.60659095 -54.9375 1466.75 C-57.82505078 1450.22765565 -60.81555005 1433.72966808 -63.9375 1417.25 C-67.2621919 1399.70012894 -70.42464571 1382.12692938 -73.5 1364.53173828 C-76.20268431 1349.08280064 -79.01829628 1333.65944254 -81.9375 1318.25 C-85.2621919 1300.70012894 -88.42464571 1283.12692938 -91.5 1265.53173828 C-94.20268431 1250.08280064 -97.01829628 1234.65944254 -99.9375 1219.25 C-103.2621919 1201.70012894 -106.42464571 1184.12692938 -109.5 1166.53173828 C-112.20268431 1151.08280064 -115.01829628 1135.65944254 -117.9375 1120.25 C-121.2621919 1102.70012894 -124.42464571 1085.12692938 -127.5 1067.53173828 C-130.02974686 1053.07133632 -132.6476589 1038.63135667 -135.37774658 1024.20742798 C-138.63747374 1006.98482962 -141.85026316 989.75398748 -144.9440918 972.50073242 C-145.35345377 970.22475744 -145.76600595 967.94935375 -146.18188477 965.67456055 C-146.75775704 962.52023947 -147.32183208 959.36402994 -147.8828125 956.20703125 C-148.05624176 955.26978714 -148.22967102 954.33254303 -148.40835571 953.36689758 C-148.55993134 952.49921249 -148.71150696 951.6315274 -148.86767578 950.73754883 C-149.00263458 949.9874202 -149.13759338 949.23729156 -149.27664185 948.46443176 C-149.57766398 944.32045172 -149.06434021 942.02622305 -146.41905212 938.75053406 C-145.53302811 937.87339249 -144.64700409 936.99625092 -143.73413086 936.0925293 C-143.2463063 935.60412064 -142.75848175 935.11571198 -142.25587463 934.61250305 C-140.64733311 933.00673961 -139.02510922 931.41559548 -137.40234375 929.82421875 C-136.28189 928.71122835 -135.1623184 927.59734924 -134.04359436 926.48262024 C-131.10139364 923.55566831 -128.14737839 920.64092889 -125.19073486 917.72857666 C-122.17396036 914.75277083 -119.16852301 911.76556335 -116.16210938 908.77929688 C-110.26493837 902.92498347 -104.35523645 897.08352403 -98.4375 891.25 C-99.66041748 890.93329346 -100.88333496 890.61658691 -102.14331055 890.2902832 C-137.6210161 881.05849285 -171.96958703 869.21133083 -204.54394531 852.23583984 C-206.54247681 851.19534601 -208.54847476 850.1701267 -210.5546875 849.14453125 C-225.4225633 841.47691862 -239.66773392 832.74698691 -253.4375 823.25 C-254.38592773 822.599104 -254.38592773 822.599104 -255.35351562 821.93505859 C-264.59585829 815.5749479 -273.51678961 808.93739151 -282.21484375 801.8515625 C-284.61084014 799.90150865 -287.04760395 798.04560428 -289.5625 796.25 C-295.05107959 792.20515547 -299.89670578 787.36223618 -304.86523438 782.70898438 C-307.0664227 780.66639099 -309.31422869 778.67800772 -311.5625 776.6875 C-319.01959025 769.9943068 -326.14237253 762.94992391 -332.64453125 755.3203125 C-334.76896824 752.8672589 -336.97938637 750.50296853 -339.1875 748.125 C-344.48798523 742.31052833 -349.32443817 736.19368372 -354.11572266 729.95703125 C-355.32467832 728.39570542 -356.55765565 726.8530563 -357.79296875 725.3125 C-369.98292069 709.95765266 -380.69835697 693.25470803 -390.4375 676.25 C-390.9958252 675.2914209 -390.9958252 675.2914209 -391.56542969 674.31347656 C-428.59497397 610.61036843 -448.79646416 536.86413253 -450.4375 463.25 C-450.45941406 462.33492676 -450.48132813 461.41985352 -450.50390625 460.47705078 C-451.54554112 409.28937735 -443.87506078 359.00207447 -428.4375 310.25 C-428.13875977 309.30527832 -427.84001953 308.36055664 -427.53222656 307.38720703 C-407.88517287 246.3025226 -372.560218 184.83617351 -326.17578125 139.98828125 C-324.42157142 138.23407142 -322.84191971 136.40178242 -321.25 134.5 C-316.63590151 129.1413538 -311.34273507 124.50763036 -306.10742188 119.77148438 C-304.53160663 118.3357416 -302.9736819 116.8834844 -301.421875 115.421875 C-294.63944573 109.05578167 -287.53716101 103.25910695 -280.16259766 97.59423828 C-278.54995378 96.33762674 -276.96703481 95.04312652 -275.38671875 93.74609375 C-248.21570738 71.4511588 -216.40782754 53.3424928 -184.37548828 39.1171875 C-183.02853299 38.51446828 -181.68603126 37.90173698 -180.34716797 37.28125 C-137.0223961 17.21063842 -88.879229 5.63939688 -41.4375 1.25 C-40.49543701 1.1557373 -39.55337402 1.06147461 -38.58276367 0.96435547 C-25.75646116 -0.15010837 -12.86420308 0.00610797 0 0 Z " fill="#FED2A8" transform="translate(796.4375,-0.25)"/>
<path d="M0 0 C0.78987305 0.71192505 0.78987305 0.71192505 1.59570312 1.43823242 C2.51561035 2.23293945 2.51561035 2.23293945 3.45410156 3.04370117 C4.08864258 3.62120117 4.72318359 4.19870117 5.37695312 4.79370117 C6.78435385 6.00286717 8.19591957 7.2072 9.61132812 8.40698242 C10.32224609 9.0123584 11.03316406 9.61773438 11.765625 10.24145508 C17.46708363 14.93948863 23.7215101 18.91131487 29.87695312 22.98120117 C30.63991699 23.49150879 31.40288086 24.00181641 32.18896484 24.52758789 C44.76748347 32.93456772 57.63932304 40.66000836 70.87695312 47.98120117 C71.59383301 48.38290527 72.31071289 48.78460937 73.04931641 49.19848633 C108.10463606 68.79239803 146.91232571 81.80379064 185.87695312 90.98120117 C181.24361573 96.64207962 176.16942344 101.67351338 170.87819099 106.71891022 C167.80964443 109.65524942 164.77359721 112.62529901 161.73053837 115.58800125 C159.06722868 118.17726988 156.39402507 120.7545989 153.69799805 123.30981445 C151.07104138 125.80084323 148.47488935 128.32056431 145.89663506 130.86193085 C144.91560758 131.81842126 143.92400587 132.7641976 142.92164803 133.69831085 C137.19674374 138.84098777 137.19674374 138.84098777 134.4538269 145.74804688 C134.67680009 148.60305338 135.18697248 151.2040611 135.87695312 153.98120117 C136.1493196 155.59531245 136.41513838 157.2105447 136.67382812 158.8269043 C136.98635196 160.47307932 137.30427824 162.11823577 137.62695312 163.76245117 C137.80069458 164.67285156 137.97443604 165.58325195 138.15344238 166.52124023 C138.52800151 168.48298852 138.90473127 170.4443234 139.28344727 172.40527344 C140.31694036 177.761497 141.33173315 183.1212525 142.34570312 188.48120117 C142.55642456 189.59426636 142.767146 190.70733154 142.98425293 191.85412598 C145.2194118 203.71161603 147.3031714 215.59462402 149.37695312 227.48120117 C152.26339634 244.00373036 155.2550065 260.50155063 158.37695312 276.98120117 C161.70164503 294.53107223 164.86409883 312.10427179 167.93945312 329.69946289 C170.64213743 345.14840053 173.45774941 360.57175863 176.37695312 375.98120117 C179.70164503 393.53107223 182.86409883 411.10427179 185.93945312 428.69946289 C188.64213743 444.14840053 191.45774941 459.57175863 194.37695312 474.98120117 C197.70164503 492.53107223 200.86409883 510.10427179 203.93945312 527.69946289 C206.64213743 543.14840053 209.45774941 558.57175863 212.37695312 573.98120117 C215.70164503 591.53107223 218.86409883 609.10427179 221.93945312 626.69946289 C224.64213778 642.14840251 227.45785191 657.57173784 230.37695312 672.98120117 C233.99472828 692.08072491 237.43405232 711.20779548 240.78320312 730.35620117 C241.0457338 731.85651886 241.0457338 731.85651886 241.31356812 733.387146 C241.65727413 735.35320164 242.00024498 737.31938597 242.34243774 739.28570557 C243.20862802 744.24553482 244.09863458 749.19956999 245.02685547 754.14819336 C245.21318039 755.14736786 245.39950531 756.14654236 245.59147644 757.17599487 C245.94560477 759.06727973 246.30413154 760.95774855 246.66792297 762.84719849 C247.49877147 767.29266863 248.08433165 771.43378616 247.87695312 775.98120117 C248.53695312 775.98120117 249.19695313 775.98120117 249.87695312 775.98120117 C250.03921638 774.32800873 250.03921638 774.32800873 250.20475769 772.64141846 C250.86186652 767.42846473 252.22685552 762.47189434 253.63208008 757.41772461 C253.9165931 756.37712765 254.20110613 755.33653069 254.49424076 754.26440048 C255.44603087 750.7883407 256.40566941 747.31449703 257.36523438 743.84057617 C258.04954807 741.34710342 258.73334234 738.85348807 259.41665649 736.35974121 C260.8906965 730.98297831 262.3686013 725.6072903 263.84909058 720.2322998 C266.22368109 711.61081439 268.59015002 702.9871103 270.95532227 694.36303711 C271.7685062 691.39824528 272.58173339 688.43346532 273.39497375 685.46868896 C273.59792382 684.72878165 273.80087388 683.98887433 274.00997394 683.22654557 C275.46810343 677.91091071 276.9272862 672.59556562 278.3868866 667.28033447 C283.92476054 647.11253533 289.44536163 626.94009273 294.94726562 606.76245117 C295.13074208 606.08957125 295.31421854 605.41669132 295.50325489 604.7234211 C297.53701652 597.26450409 299.57005129 589.80538909 301.6027832 582.34619141 C303.63341045 574.89475198 305.66521298 567.44363336 307.69734526 559.99260426 C314.50666708 535.02538064 321.31272843 510.05727266 328.11089611 485.08700943 C331.43536388 472.8759832 334.76112953 460.66531091 338.08771229 448.45486069 C340.25929941 440.48358226 342.42952148 432.51193474 344.5978899 424.53978014 C346.07250594 419.11867973 347.54870432 413.69801171 349.02606964 408.27765989 C349.87355553 405.16808178 350.72012919 402.05826067 351.56521225 398.94802856 C355.09675741 385.95209912 358.69455441 372.98291932 362.52876759 360.07252884 C364.81716961 352.3345524 366.78716909 344.53735982 368.70117188 336.69995117 C370.37964927 329.88000313 372.30638862 323.13082998 374.20898438 316.37084961 C375.43167729 311.99668357 376.62193139 307.6136704 377.81445312 303.23120117 C378.19138306 301.84698975 378.19138306 301.84698975 378.57592773 300.43481445 C379.08769407 298.55512951 379.59933084 296.67540928 380.11083984 294.7956543 C381.36443443 290.19035205 382.62081513 285.58581019 383.87695312 280.98120117 C384.3769669 279.1478716 384.87696689 277.31453826 385.37695312 275.48120117 C388.37695313 264.48120114 388.37695313 264.48120114 389.0839386 261.88894653 C389.58671278 260.04542508 390.08947143 258.20189939 390.59220886 256.35836792 C391.75744099 252.08556319 392.922808 247.81279567 394.08911133 243.5402832 C398.67589685 226.73462516 403.24938488 209.92534296 407.81902885 193.11501694 C409.07227475 188.5047963 410.32599884 183.89470683 411.58081055 179.28491211 C412.81426958 174.7535089 414.04652108 170.22177889 415.27794838 165.68982315 C415.74115509 163.98589839 416.20477507 162.28208592 416.66884422 160.57839584 C416.88924181 159.76916798 417.1096394 158.95994011 417.3367157 158.12619019 C417.65868266 156.94685945 417.65868266 156.94685945 417.98715401 155.74370384 C418.39777065 154.22335911 418.80131518 152.70108334 419.19711113 151.17681313 C420.05418889 147.88592469 420.965826 144.74185253 422.15184021 141.54772949 C423.21327693 138.51642424 423.91887125 136.19357544 423.87695312 132.98120117 C421.72327885 128.82082033 418.63158388 125.97988058 415.20117188 122.84057617 C414.28688919 121.9475177 413.37260651 121.05445923 412.43061829 120.13433838 C410.00400645 117.77734124 407.5504695 115.45819776 405.0769043 113.15118408 C402.55685548 110.78520605 400.07926878 108.37563088 397.59765625 105.96948242 C392.72873328 101.26574427 387.81955577 96.60739038 382.87695312 91.98120117 C386.20809322 89.76044111 388.6708384 89.19285358 392.56445312 88.29370117 C423.62646286 80.78101237 453.15921749 69.94670801 481.87695312 55.98120117 C482.79718262 55.5388916 483.71741211 55.09658203 484.66552734 54.64086914 C501.42851656 46.56980026 517.08507266 37.28051443 532.56445312 26.98120117 C533.44784866 26.39427994 533.44784866 26.39427994 534.34909058 25.79550171 C539.7911717 22.1727398 545.22104309 18.55248883 550.40429688 14.56323242 C551.03182861 14.0843457 551.65936035 13.60545898 552.3059082 13.11206055 C553.85089014 11.91112454 555.36943325 10.67636985 556.88476562 9.43823242 C561.12640168 7.37278823 564.42018949 8.09988229 568.87695312 8.98120117 C569.99086426 9.18737061 571.10477539 9.39354004 572.25244141 9.60595703 C576.30255311 10.38035848 580.34025275 11.20275253 584.37695312 12.04370117 C585.11793243 12.19737152 585.85891174 12.35104187 586.62234497 12.5093689 C643.12683331 24.26598314 698.48106597 40.5246418 750.87695312 64.98120117 C751.85132324 65.43221191 752.82569336 65.88322266 753.82958984 66.34790039 C788.53524299 82.45948563 821.98615056 102.28961664 850.94726562 127.45385742 C853.834407 129.94449805 856.77981979 132.34302358 859.75195312 134.73120117 C863.45997917 137.74699081 866.88759315 140.86945334 870.20507812 144.30541992 C872.00266238 146.10720414 873.88355615 147.76097373 875.81445312 149.41870117 C882.00962249 154.77668549 887.63245955 160.58057767 892.96679688 166.78979492 C895.20339131 169.35570387 897.5081938 171.85276547 899.81445312 174.35620117 C904.40385979 179.40109783 908.71798168 184.57751963 912.87695312 189.98120117 C913.31233398 190.54403809 913.74771484 191.106875 914.19628906 191.68676758 C970.36635427 264.53051378 999.82454499 352.44405006 1035.87695312 569.98120117 C1035.9873291 571.15602051 1036.09770508 572.33083984 1036.21142578 573.54125977 C1036.84011956 580.3499639 1037.42472781 587.15842714 1037.87695312 593.98120117 C1037.96380371 595.19767334 1038.0506543 596.41414551 1038.14013672 597.66748047 C1039.12609623 612.7211759 1039.0990966 627.80215964 1039.1171875 642.88134766 C1039.12153604 645.96285067 1039.13531436 649.04406799 1039.15820312 652.12548828 C1039.35991164 679.89652063 1037.98018064 707.45676128 1033.56445312 734.91870117 C1033.46024048 735.58190369 1033.35602783 736.2451062 1033.24865723 736.92840576 C1023.16479404 800.91117488 999.77491533 862.2257814 958.87695312 912.98120117 C958.15378906 913.89643555 957.430625 914.81166992 956.68554688 915.75463867 C947.70574629 926.96734137 937.75523649 937.18892359 927.62695312 947.35620117 C926.78737061 948.20045654 925.94778809 949.04471191 925.08276367 949.91455078 C920.17597357 954.80873824 915.16303151 959.49952602 909.87695312 963.98120117 C909.05710937 964.68245117 908.23726562 965.38370117 907.39257812 966.10620117 C880.91871696 988.01560351 852.23405598 1005.97730127 821.87695312 1021.98120117 C820.50192627 1022.70774902 820.50192627 1022.70774902 819.09912109 1023.44897461 C736.43069382 1066.78801703 642.57134797 1088.25241911 436.49951172 1114.77801514 C433.95815875 1114.97490966 431.41750676 1115.17905575 428.87695312 1115.38598633 C370.32291858 1120.13800651 311.63935324 1121.50340924 252.91749793 1121.36690778 C247.49189813 1121.35560181 242.06646294 1121.35969365 236.64086914 1121.37231445 C202.09038838 1121.45053431 167.61002049 1121.05463499 133.08789062 1119.57495117 C131.97397221 1119.52738151 131.97397221 1119.52738151 130.8375504 1119.47885084 C38.60577917 1115.51544689 -53.67515165 1106.12556378 -295.56298828 1035.18920898 C-297.88891264 1034.09168145 -300.22535661 1033.02510227 -302.57226562 1031.97338867 C-314.85715798 1026.42941509 -326.49476605 1019.77882802 -338.12304688 1012.98120117 C-339.34024414 1012.27108887 -339.34024414 1012.27108887 -340.58203125 1011.54663086 C-357.96649842 1001.33822444 -374.56489907 989.80659899 -390.12304688 976.98120117 C-390.67589355 976.52600098 -391.22874023 976.07080078 -391.79833984 975.60180664 C-406.13395075 963.71806814 -419.90116147 951.0460693 -432.12304688 936.98120117 C-432.91453125 936.07756836 -433.70601563 935.17393555 -434.52148438 934.24291992 C-477.20841001 884.3033613 -500.85851853 823.5797704 -510.12304688 758.98120117 C-510.2896582 757.81975586 -510.45626953 756.65831055 -510.62792969 755.46166992 C-513.23010214 736.08814582 -513.40715627 716.69135169 -513.43267441 697.1736145 C-513.43548949 695.20875705 -513.44105898 693.24390415 -513.44668579 691.27905273 C-513.59978471 588.76336475 -486.54541799 486.73415892 -444.88549805 343.27252197 C-444.12146681 340.97645275 -443.36450207 338.67816196 -442.609375 336.37915039 C-432.88793742 306.8302481 -421.5879273 278.04201198 -408.12304688 249.98120117 C-407.44677246 248.57088623 -407.44677246 248.57088623 -406.75683594 247.13208008 C-400.45069319 234.06999519 -393.64405102 221.38371371 -386.12304688 208.98120117 C-385.64754395 208.19648437 -385.17204102 207.41176758 -384.68212891 206.60327148 C-372.04746244 185.89305643 -357.77497853 166.24321609 -341.31835938 148.38745117 C-339.46930659 146.3607314 -337.67280335 144.30406635 -335.88085938 142.22729492 C-332.0421316 137.83154717 -328.00113751 133.66710239 -323.87304688 129.54370117 C-323.12579346 128.79725342 -322.37854004 128.05080566 -321.60864258 127.28173828 C-316.04048516 121.77485522 -310.28945766 116.80952889 -304.12304688 111.98120117 C-302.2869264 110.42197734 -300.45375694 108.85927392 -298.62304688 107.29370117 C-285.57079161 96.42245748 -271.75685458 86.60084694 -257.12304688 77.98120117 C-256.30545898 77.4990918 -255.48787109 77.01698242 -254.64550781 76.52026367 C-244.001484 70.27724859 -233.27122107 64.29600952 -222.14501953 58.95532227 C-220.02028218 57.93169246 -217.9057914 56.88852123 -215.79101562 55.84448242 C-156.70632014 26.94111153 -91.41023959 12.18849781 -26.87304688 1.54370117 C-26.08305298 1.41187439 -25.29305908 1.28004761 -24.47912598 1.14422607 C-22.23134772 0.77132521 -19.98226366 0.4078247 -17.73242188 0.04760742 C-16.45334961 -0.15920654 -15.17427734 -0.36602051 -13.85644531 -0.57910156 C-3.69954199 -1.77532069 -3.69954199 -1.77532069 0 0 Z M12.42773438 35.86401367 C11.710215 35.95854324 10.99269562 36.05307281 10.25343323 36.15046692 C7.89798515 36.46347108 5.54364302 36.78387631 3.18945312 37.10620117 C2.37583313 37.21690948 1.56221313 37.3276178 0.72393799 37.44168091 C-25.06704677 40.9684034 -50.63028175 45.31118956 -75.98144531 51.25756836 C-79.0355961 51.96105786 -82.09582249 52.62195164 -85.16210938 53.27026367 C-122.77542774 61.34768539 -160.19437455 73.47574975 -194.97607422 89.97387695 C-197.06138067 90.9522684 -199.16004808 91.8916497 -201.26757812 92.82104492 C-248.61622963 113.94998646 -293.39936895 148.98234575 -324.82324219 190.28295898 C-326.09312287 191.94210437 -327.38167817 193.58463967 -328.67773438 195.22338867 C-334.94968731 203.18530138 -340.68922226 211.42628719 -346.12304688 219.98120117 C-346.57373535 220.69034668 -347.02442383 221.39949219 -347.48876953 222.13012695 C-390.18717336 289.95746967 -414.19486965 369.318707 -433.27954102 446.59350586 C-435.00808187 453.58434455 -436.77652874 460.55459538 -438.74804688 467.48120117 C-444.607188 488.19337433 -449.23319313 509.16876436 -453.68643188 530.21887207 C-454.67760044 534.90208388 -455.69036447 539.57984499 -456.72070312 544.25463867 C-470.67712097 608.37066084 -478.73267981 675.45377603 -472.12304688 740.98120117 C-471.97826904 742.43308838 -471.97826904 742.43308838 -471.83056641 743.91430664 C-463.86810821 820.0741079 -430.40823868 892.59770164 -370.49804688 941.79370117 C-368.70843613 943.19216945 -366.91665407 944.58786225 -365.12304688 945.98120117 C-364.03180132 946.88157992 -362.94343218 947.7854522 -361.85742188 948.69213867 C-314.18391518 988.22353479 -255.34672821 1011.50868688 -197.07232666 1030.3503418 C-195.33235594 1030.91346098 -193.5935842 1031.48028178 -191.85498047 1032.04760742 C-103.31947277 1060.78294789 -6.85320683 1072.07572321 113.54394531 1078.7590332 C118.1431662 1078.94752238 122.74115286 1079.15780137 127.33920288 1079.37277222 C152.59699878 1080.54697033 177.84650095 1081.23095773 203.12695312 1081.60620117 C203.81939117 1081.61658039 204.51182922 1081.62695961 205.22525024 1081.63765335 C291.47450553 1082.92184692 377.76454679 1080.8585378 674.87695312 1035.98120117 C675.8526123 1035.71839355 676.82827148 1035.45558594 677.83349609 1035.18481445 C721.90481898 1023.27632648 764.158999 1006.4823053 804.87695312 985.98120117 C805.77462402 985.53292969 806.67229492 985.0846582 807.59716797 984.62280273 C826.63595146 975.07339399 844.78020372 963.6666115 861.87695312 950.98120117 C862.75335449 950.33223877 862.75335449 950.33223877 863.64746094 949.67016602 C885.6082178 933.30959072 906.95023118 914.56932675 923.87695312 892.98120117 C924.82898798 891.81648126 925.78357025 890.6538405 926.74023438 889.49291992 C933.70265717 881.00436439 940.0204847 872.26620513 945.87695312 862.98120117 C946.24884766 862.39435547 946.62074219 861.80750977 947.00390625 861.20288086 C972.03335551 821.40738085 988.13778233 775.69718958 994.20532227 729.06494141 C994.64319361 725.70007975 995.11239165 722.34217689 995.61132812 718.98583984 C997.47837629 706.25877477 998.61982062 693.64414933 999.12695312 680.79370117 C999.166763 679.82309753 999.20657288 678.8524939 999.24758911 677.85247803 C1001.72020166 615.33762957 995.42859629 553.70070166 985.87695312 491.98120117 C985.72570984 491.00044617 985.57446655 490.01969116 985.41864014 489.00921631 C975.29830948 423.66516142 959.82369693 358.15580736 931.87695312 297.98120117 C931.42852051 297.0021582 930.98008789 296.02311523 930.51806641 295.0144043 C916.19771765 263.80563559 898.18435824 234.16324833 875.87695312 207.98120117 C874.88591917 206.8042429 873.89504386 205.62715102 872.90429688 204.44995117 C868.19984085 198.88668138 863.50491379 193.40745951 858.24804688 188.35229492 C856.87695313 186.98120117 856.87695313 186.98120117 854.93945312 184.48120117 C852.54407964 181.57771816 849.86419685 179.29732704 847.00585938 176.86010742 C844.92325852 175.02206887 842.99602925 173.1012377 841.06445312 171.10620117 C836.32927347 166.31585438 831.14729053 162.16487107 825.87695312 157.98120117 C824.80382335 157.11688236 823.73091282 156.25229129 822.65820312 155.38745117 C750.46448414 97.5359519 661.45185814 68.26180915 566.87695312 48.98120117 C565.48672943 48.6991684 565.48672943 48.6991684 564.06842041 48.41143799 C561.23141577 47.83926949 558.39250692 47.27773549 555.55273438 46.71948242 C554.25531563 46.45750313 554.25531563 46.45750313 552.9316864 46.19023132 C552.11094131 46.03141983 551.29019623 45.87260834 550.44458008 45.70898438 C549.72994095 45.56805862 549.01530182 45.42713287 548.27900696 45.28193665 C545.13502262 44.88831199 542.04167034 44.93641949 538.87695312 44.98120117 C538.55169647 45.9869368 538.22643982 46.99267242 537.8913269 48.02888489 C527.84348834 79.07685373 517.56426319 110.04569199 507.22741699 140.99847412 C505.14720059 147.22865906 503.06880893 153.45945269 500.99023438 159.69018555 C496.9541951 171.78776556 492.91630131 183.88472562 488.87695312 195.98120117 C487.77174738 195.04245847 486.66777796 194.10226012 485.5643158 193.16146851 C484.94940749 192.63805563 484.33449919 192.11464275 483.7009573 191.57536888 C480.9976016 189.21265369 478.46771486 186.6962718 475.94335938 184.14526367 C475.15915871 183.35894058 475.15915871 183.35894058 474.3591156 182.55673218 C472.71682967 180.90892247 471.07808663 179.25764216 469.43945312 177.60620117 C468.31533846 176.47706162 467.19099139 175.3481534 466.06640625 174.21948242 C463.33390078 171.47604929 460.60456304 168.72950132 457.87695312 165.98120117 C454.98651009 168.41249258 454.21747359 170.49089137 453.30200195 174.1184082 C453.02007492 175.20773651 452.73814789 176.29706482 452.44767761 177.41940308 C451.98921196 179.24823532 451.98921196 179.24823532 451.52148438 181.11401367 C450.99803339 183.14571915 450.47016017 185.17624504 449.94201756 187.20673561 C449.55433242 188.69744361 449.16775717 190.18844061 448.7821722 191.67969322 C446.4660767 200.61969328 444.02914164 209.52648737 441.59419441 218.43470573 C440.74763295 221.53207124 439.90249658 224.62982254 439.057724 227.72767639 C437.54553765 233.27241012 436.03214703 238.81681439 434.51849747 244.36114883 C433.21522201 249.13557674 431.91270088 253.91021033 430.61014462 258.68483448 C423.38032743 285.18546991 416.14003825 311.68322808 408.8887229 338.17798853 C407.99357266 341.44871534 407.0984863 344.71945964 406.20339966 347.99020386 C406.02543732 348.64049549 405.84747498 349.29078712 405.66411984 349.96078455 C404.03693138 355.90670885 402.40979354 361.852647 400.78270721 367.79859924 C400.05227235 370.46786779 399.32180531 373.13712752 398.59131622 375.80638123 C389.98399476 407.25869382 381.39492904 438.71582867 372.86132812 470.18823242 C372.58314554 471.21417432 372.58314554 471.21417432 372.29934311 472.26084232 C369.14509004 483.8942168 365.99256148 495.52805861 362.84060669 507.16205597 C351.50570517 548.99939822 340.10022423 590.81680836 328.59066296 632.60650635 C327.24414457 637.49557835 325.89823187 642.38481687 324.55273438 647.27416992 C324.29982195 648.19308769 324.04690952 649.11200546 323.78633308 650.05876923 C320.28309967 662.79314962 316.83761306 675.54134437 313.45173645 688.30741882 C310.82081245 698.22355952 308.09050703 708.10908224 305.31347656 717.98510742 C302.97042125 726.3284742 300.68314463 734.68440451 298.46398926 743.06164551 C294.26168644 758.92347859 289.94146594 774.7518591 285.59570312 790.57495117 C285.26616638 791.77493744 284.93662964 792.97492371 284.59710693 794.21127319 C281.84340279 804.23716792 279.08692421 814.26229949 276.3303833 824.28741455 C273.93841069 832.98708475 271.5475943 841.68707162 269.15820312 850.38745117 C268.83126465 851.57762911 268.50432617 852.76780704 268.16748047 853.99405098 C264.11555307 868.74936016 260.08558182 883.50943827 256.19543457 898.30834961 C254.20241539 905.87298571 252.0310657 913.36496734 249.68945312 920.82885742 C248.66896339 924.24559984 248.66896339 924.24559984 248.87695312 928.98120117 C244.58695313 928.98120117 240.29695312 928.98120117 235.87695312 928.98120117 C235.78217619 927.40248387 235.68739925 925.82376657 235.58975029 924.19720936 C234.83236004 915.20296308 233.10638106 906.39226095 231.47219849 897.52507019 C231.11345313 895.55462127 230.75521795 893.58407942 230.3974458 891.61345357 C229.41601757 886.21584328 228.42749873 880.81955245 227.43784219 875.42344567 C226.36963547 869.59169411 225.30820542 863.758709 224.24601364 857.92585945 C222.3990041 847.78819601 220.54800965 837.65126642 218.69430161 827.51482582 C215.84599452 811.939292 213.00525095 796.36238427 210.16625838 780.78515031 C209.14658657 775.19040324 208.1267838 769.59568004 207.10699055 764.00095511 C206.8494364 762.58796986 206.59188599 761.17498394 206.33433933 759.76199733 C204.49889208 749.69217501 202.66252802 739.62252025 200.82549805 729.55298655 C193.50944713 689.45022829 186.21412562 649.34375014 178.93847656 609.23364258 C178.75606658 608.22804553 178.75606658 608.22804553 178.56997154 607.2021334 C176.23887591 594.3511287 173.90815708 581.50005567 171.57784963 568.64890802 C168.16127981 549.80733201 164.74311921 530.96604519 161.3237915 512.12496948 C161.07971961 510.7800781 160.83564796 509.43518668 160.59157655 508.09029521 C159.37174145 501.36873043 158.15188027 494.64717038 156.9320035 487.92561316 C154.5020863 474.53669153 152.07225274 461.14775472 149.64257812 447.75878906 C149.52216592 447.09524993 149.40175372 446.4317108 149.27769266 445.74806442 C145.26742588 423.64916024 141.25931977 401.5498647 137.25205219 379.45041649 C133.02960747 356.16437417 128.8048494 332.87875266 124.57722177 309.59365072 C121.89765258 294.83497121 119.22009155 280.07593092 116.54573818 265.31630536 C114.82496836 255.82054252 113.10164956 246.32524458 111.37626378 236.83031938 C110.38558495 231.37810111 109.39606217 225.92567959 108.40961266 220.4726944 C107.50881389 215.49330809 106.60478309 210.51452002 105.69814481 205.53619375 C105.37113852 203.7373476 105.0453294 201.93828334 104.72083257 200.13898281 C104.28050628 197.69840558 103.83584368 195.25865676 103.39008904 192.81906605 C103.26513361 192.12050097 103.14017818 191.42193589 103.01143622 190.70220217 C102.21243018 186.36238773 101.14613093 182.20063146 99.87695312 177.98120117 C94.57072949 182.32265687 89.75259941 187.03154783 84.96582031 191.92944336 C81.08140376 195.87897585 81.08140376 195.87897585 78.87695312 196.98120117 C78.75422783 195.96308507 78.63150253 194.94496897 78.50505829 193.89600086 C77.9095044 190.18408397 77.01650603 186.90451565 75.82727051 183.34440613 C75.51465546 182.4003761 75.51465546 182.4003761 75.19572496 181.43727475 C74.50204248 179.34735966 73.79987828 177.26039958 73.09765625 175.17333984 C72.59616356 173.66835257 72.09519559 172.16319035 71.5947113 170.65786743 C70.238603 166.5841367 68.87507865 162.5129237 67.51010704 158.4421556 C66.08240248 154.18036953 64.66128381 149.91638828 63.23937988 145.65266418 C60.85252959 138.49855407 58.46124877 131.34593793 56.06689453 124.19433594 C52.99121754 115.00766433 49.92244986 105.81870076 46.85599518 96.62894726 C44.22053859 88.73086997 41.58239988 80.83368909 38.94357872 72.93673539 C38.09457016 70.39577912 37.24584022 67.85472989 36.39710999 65.31368065 C35.06569316 61.32819885 33.73262017 57.34327465 32.39824104 53.35878372 C31.90792773 51.89397559 31.41812023 50.42899804 30.92884636 48.96384239 C30.26283701 46.96978422 29.59499039 44.97635109 28.92663574 42.983078 C28.55276482 41.86573871 28.17889389 40.74839941 27.79369354 39.59720135 C26.96031336 37.04271606 26.96031336 37.04271606 25.87695312 34.98120117 C21.30647138 34.88169931 16.95802984 35.26523169 12.42773438 35.86401367 Z " fill="#1D4984" transform="translate(513.123046875,799.018798828125)"/>
<path d="M0 0 C1.25985718 0.27602051 1.25985718 0.27602051 2.54516602 0.55761719 C58.82677503 12.26591894 119.39762296 13.25421718 175.64724731 0.887146 C187.27925663 -1.60446897 187.27925663 -1.60446897 191.61843872 0.91479492 C204.78333146 10.41539022 226.49117825 27.09257913 231.12579346 43.27246094 C232.34871947 54.02014331 227.23413717 64.51287364 222.95532227 74.1000824 C218.4177702 84.30373478 215.75615232 94.91154586 212.98095703 105.7010498 C211.56273798 111.15109715 210.0445844 116.57306582 208.53735352 121.99902344 C205.75143321 132.10923582 203.08018619 142.24307819 200.48950195 152.4050293 C198.88770983 158.66390282 197.14942392 164.86083653 195.2734375 171.04248047 C193.28337948 177.68141128 191.58032538 184.39107191 189.86157227 191.10449219 C187.97464861 198.47478375 186.07210151 205.82410216 183.86157227 213.10449219 C181.38736556 221.25668606 179.28214733 229.49774557 177.21118164 237.76074219 C175.36425645 245.03273196 173.31315257 252.22625593 171.18994141 259.42163086 C167.31715448 272.63090184 163.67781418 285.89934796 160.06860352 299.18261719 C159.37109718 301.74327753 158.67341519 304.30388941 157.97550964 306.86444092 C156.48540837 312.33276107 154.99680862 317.80148802 153.50927734 323.27050781 C151.32824626 331.28913448 149.1446652 339.30706515 146.96042657 347.32481861 C145.93309575 351.09588165 144.90585234 354.8669685 143.87863159 358.63806152 C143.67345661 359.39129117 143.46828163 360.14452083 143.25688922 360.92057562 C141.78922428 366.3088062 140.3220049 371.69715798 138.85501099 377.08557129 C133.32425372 397.40048475 127.78886253 417.71412821 122.24829102 438.02636719 C122.06404391 438.70184074 121.8797968 439.37731429 121.68996644 440.07325673 C120.02037143 446.19418275 118.35071209 452.31509121 116.68096256 458.43597507 C114.09989307 467.89755498 111.51928008 477.35925929 108.93896484 486.82104492 C108.56893521 488.17790321 108.19890544 489.53476147 107.82887554 490.89161968 C107.27244093 492.93200511 106.71600655 494.9723906 106.15957302 497.01277632 C99.8245737 520.24253905 93.48826265 543.47194364 87.15085411 566.70104921 C85.67300759 572.1179712 84.19524077 577.53491494 82.7175293 582.95187378 C82.51122454 583.7081406 82.30491978 584.46440743 82.09236336 585.24359143 C81.0605585 589.02596845 80.02876464 592.80834847 78.99697876 596.59073067 C76.79954965 604.64613362 74.60185191 612.70146318 72.40380287 620.756697 C70.91227966 626.22279717 69.42106677 631.68898194 67.93008995 637.15523118 C67.07232707 640.29993653 66.21437822 643.44459094 65.35614014 646.58916664 C61.99113296 658.91879131 58.62960607 671.24874588 55.36157227 683.60449219 C54.70157227 683.60449219 54.04157227 683.60449219 53.36157227 683.60449219 C53.2269458 682.79560547 53.09231934 681.98671875 52.95361328 681.15332031 C49.85120353 662.59810253 46.55040521 644.08867114 43.04907227 625.60449219 C39.86474308 608.79142299 36.8067526 591.96108314 33.86157227 575.10449219 C30.97402148 558.58214783 27.98352221 542.08416027 24.86157227 525.60449219 C21.53688036 508.05462113 18.37442656 490.48142157 15.29907227 472.88623047 C12.59638796 457.43729283 9.78077598 442.01393473 6.86157227 426.60449219 C3.53688036 409.05462113 0.37442656 391.48142157 -2.70092773 373.88623047 C-5.40361204 358.43729283 -8.21922402 343.01393473 -11.13842773 327.60449219 C-14.46311964 310.05462113 -17.62557344 292.48142157 -20.70092773 274.88623047 C-23.40361204 259.43729283 -26.21922402 244.01393473 -29.13842773 228.60449219 C-32.46311964 211.05462113 -35.62557344 193.48142157 -38.70092773 175.88623047 C-41.23067459 161.42582851 -43.84858664 146.98584886 -46.57867432 132.56192017 C-49.83840147 115.33932181 -53.05119089 98.10847967 -56.14501953 80.85522461 C-56.5543815 78.57924963 -56.96693368 76.30384594 -57.3828125 74.02905273 C-57.95868477 70.87473166 -58.52275981 67.71852212 -59.08374023 64.56152344 C-59.25716949 63.62427933 -59.43059875 62.68703522 -59.60928345 61.72138977 C-59.76085907 60.85370468 -59.91243469 59.98601959 -60.06860352 59.09204102 C-60.20356232 58.34191238 -60.33852112 57.59178375 -60.47756958 56.81892395 C-60.77637332 52.70548314 -60.25235118 50.38288538 -57.66708374 47.10502625 C-56.80217316 46.22788467 -55.93726257 45.3507431 -55.04614258 44.44702148 C-54.56956207 43.95861282 -54.09298157 43.47020416 -53.60195923 42.96699524 C-52.02810576 41.36032288 -50.43978404 39.76897598 -48.84936523 38.17871094 C-47.74618222 37.06521051 -46.64337389 35.95133877 -45.54092407 34.83711243 C-43.22928289 32.50605043 -40.90980009 30.18313125 -38.58520508 27.86499023 C-35.61054426 24.89632876 -32.66179237 21.90331838 -29.71910667 18.90300274 C-27.44915458 16.59604668 -25.16333728 14.30533191 -22.87273026 12.01889992 C-21.77874332 10.92204326 -20.69034254 9.81958497 -19.60776901 8.71146202 C-18.09037996 7.16206064 -16.55229231 5.63657718 -15.00708008 4.11499023 C-13.70255386 2.80524483 -13.70255386 2.80524483 -12.37167358 1.46903992 C-8.25292173 -1.34066321 -4.75568182 -0.71289021 0 0 Z " fill="#FEFEFE" transform="translate(707.638427734375,891.3955078125)"/>
<path d="M0 0 C4.53847198 1.34927545 8.31932246 3.19159348 12.375 5.625 C13.43460938 6.25664063 14.49421875 6.88828125 15.5859375 7.5390625 C16.38257813 8.02117187 17.17921875 8.50328125 18 9 C17.64518555 9.64904297 17.29037109 10.29808594 16.92480469 10.96679688 C11.13456642 21.56906551 5.4044536 32.20329356 -0.30615234 42.84863281 C-1.75599601 45.54603581 -3.21422603 48.23862359 -4.67578125 50.9296875 C-43.0364027 122.03604912 -69.61066054 202.03020304 -86 293 C-86.22139648 294.23057129 -86.44279297 295.46114258 -86.67089844 296.72900391 C-92.44439025 328.82232734 -96.32384596 361.45308691 -97.515625 394.05078125 C-97.55779648 395.20036819 -97.59996796 396.34995514 -97.64341736 397.53437805 C-98.14825053 412.16858879 -98.33686893 426.80811104 -98.53222656 441.44903564 C-98.58365676 445.25186353 -98.63868957 449.05463943 -98.69335938 452.85742188 C-98.79896686 460.23823733 -98.90046139 467.61909975 -99 475 C-105.27 475 -111.54 475 -118 475 C-118.75386646 467.57426432 -119.16945917 460.26218738 -119.203125 452.80078125 C-119.21004868 451.747733 -119.21697235 450.69468475 -119.22410583 449.60972595 C-119.24142741 446.17727937 -119.24770914 442.74498841 -119.25 439.3125 C-119.25200912 437.53897156 -119.25200912 437.53897156 -119.25405884 435.72961426 C-119.24618855 403.40499874 -117.63820559 371.04611516 -113.3924408 338.98454285 C-113.02696563 336.20507574 -112.67333055 333.42444617 -112.32470703 330.64282227 C-110.6285149 317.21028949 -108.64780774 303.84690033 -106.375 290.5 C-106.20425964 289.49552826 -106.03351929 288.49105652 -105.85760498 287.45614624 C-100.26088489 254.77778706 -92.28517855 222.81110499 -83 191 C-82.65614258 189.81664062 -82.31228516 188.63328125 -81.95800781 187.4140625 C-73.4236187 158.26976059 -62.7750451 129.96990701 -51 102 C-50.31236572 100.36587158 -50.31236572 100.36587158 -49.61083984 98.69873047 C-35.24058891 64.79899438 -18.53942697 31.79819723 0 0 Z " fill="#1E4A85" transform="translate(357,1269)"/>
<path d="M0 0 C12.50790337 28.93397827 23.9917602 58.09202095 34 88 C34.36303223 89.07975098 34.72606445 90.15950195 35.10009766 91.27197266 C58.16921378 160.25544782 72.25224919 231.63425656 79 304 C79.0835675 304.87781128 79.16713501 305.75562256 79.25323486 306.66003418 C81.71125866 332.66982138 82.28089721 358.64049118 82.30962753 384.74845886 C82.31243449 387.07079827 82.31794787 389.39312024 82.32363892 391.7154541 C82.36367937 414.20232305 81.47858455 436.56383286 80 459 C79.95269871 459.71876564 79.90539742 460.43753128 79.85666275 461.1780777 C79.57462652 465.45229081 79.28882386 469.72623946 79 474 C72.25011375 474.09642695 65.71162708 473.73045561 59 473 C59.05534912 472.12077881 59.11069824 471.24155762 59.16772461 470.33569336 C59.38007773 466.94533553 59.59041369 463.55486324 59.79956055 460.16430664 C59.88897231 458.72090014 59.97909717 457.27753757 60.07006836 455.83422852 C61.45071981 433.90578113 62.2078594 412.03708153 62.1875 390.0625 C62.18689575 388.84522217 62.1862915 387.62794434 62.18566895 386.3737793 C62.13931131 351.70505499 60.08834282 317.49788229 56.22918701 283.05169678 C56.02332689 281.2088238 55.82215459 279.3654286 55.62158203 277.52197266 C46.11025296 190.87086583 22.61501217 105.35012626 -15.83377075 15.12417603 C-17.98757659 10.23687309 -17.98757659 10.23687309 -18.1171875 7.765625 C-16.26350167 4.83602362 -13.23042857 3.9648982 -10.125 2.75 C-9.48691406 2.481875 -8.84882812 2.21375 -8.19140625 1.9375 C-5.30898305 0.75805335 -3.14148355 0 0 0 Z " fill="#1D4984" transform="translate(1199,1270)"/>
<path d="M0 0 C1.67449219 0.80050781 1.67449219 0.80050781 3.3828125 1.6171875 C8.58040066 4.09547412 13.78797744 6.55223021 19 9 C19.89783203 9.42200684 20.79566406 9.84401367 21.72070312 10.27880859 C24.43475975 11.54899887 27.15321215 12.80896508 29.875 14.0625 C31.23637085 14.69031372 31.23637085 14.69031372 32.62524414 15.33081055 C37.3235498 17.46022864 42.03052546 19.42172116 46.88671875 21.1640625 C47.83885254 21.50687256 48.79098633 21.84968262 49.77197266 22.20288086 C51.57790032 22.84009051 53.39119748 23.45693739 55.21240234 24.04907227 C56.03047363 24.33580811 56.84854492 24.62254395 57.69140625 24.91796875 C58.40498291 25.15281982 59.11855957 25.3876709 59.85375977 25.62963867 C62 27 62 27 67 34 C53.47 47.53 39.94 61.06 26 75 C23.32783271 73.66391636 23.14949073 72.04883904 22.22808838 69.32858276 C22.01086121 68.66206696 21.79363403 67.99555115 21.56982422 67.30883789 C21.33544647 66.60964737 21.10106873 65.91045685 20.85958862 65.19007874 C20.08397505 62.86997033 19.31921096 60.54644043 18.5546875 58.22265625 C18.020028 56.61443001 17.48479319 55.00639492 16.94900513 53.39854431 C15.82647226 50.02477065 14.70893113 46.64939923 13.59521484 43.27270508 C12.16534754 38.93784134 10.72634858 34.60608152 9.28400993 30.27535343 C8.17827444 26.9537239 7.07580415 23.63101865 5.97449112 20.30792046 C5.44483845 18.71006386 4.9145324 17.11242369 4.38357162 15.5150013 C3.64308509 13.28452699 2.90662114 11.05276684 2.17138672 8.82055664 C1.95011108 8.15606506 1.72883545 7.49157349 1.50085449 6.8069458 C0 2.22916875 0 2.22916875 0 0 Z " fill="#6161FE" transform="translate(585,848)"/>
<path d="M0 0 C1.34072907 2.68145814 0.49733903 4.08740631 -0.4098053 6.82136536 C-0.63937424 7.48746323 -0.86894318 8.1535611 -1.10546875 8.83984375 C-1.45858376 9.89294991 -1.45858376 9.89294991 -1.8188324 10.96733093 C-2.60095936 13.29330202 -3.3939473 15.6154045 -4.1875 17.9375 C-4.7321165 19.54654024 -5.27621847 21.15575472 -5.81982422 22.76513672 C-6.95752635 26.12835482 -8.10027688 29.48980241 -9.24658203 32.85009766 C-10.69656996 37.10271707 -12.13338326 41.35963631 -13.56532288 45.61836243 C-14.65221875 48.84794211 -15.74468837 52.07561517 -16.83877563 55.30276489 C-17.36226261 56.84896452 -17.88405709 58.39573821 -18.40414429 59.94308472 C-19.13086575 62.1020816 -19.86515509 64.25835344 -20.6015625 66.4140625 C-21.01744629 67.6407666 -21.43333008 68.8674707 -21.86181641 70.13134766 C-23 73 -23 73 -25 75 C-38.53 61.47 -52.06 47.94 -66 34 C-59.27118129 26.14971151 -59.27118129 26.14971151 -54.8125 24.5625 C-53.2346875 23.96308594 -53.2346875 23.96308594 -51.625 23.3515625 C-50.42875 22.90554688 -49.2325 22.45953125 -48 22 C-45.09168962 20.84206161 -42.20058515 19.64490866 -39.3125 18.4375 C-38.52907227 18.11064209 -37.74564453 17.78378418 -36.93847656 17.44702148 C-24.40473047 12.13926319 -12.16182229 6.10660638 0 0 Z " fill="#6161FE" transform="translate(1009,848)"/>
<path d="M0 0 C-1.65 1.32 -3.3 2.64 -5 4 C-5.99 3.01 -6.98 2.02 -8 1 C-2.25 -1.125 -2.25 -1.125 0 0 Z " fill="#355486" transform="translate(949,876)"/>
</svg>
